<?xml version="1.0" standalone="no"?>
<!DOCTYPE svg PUBLIC "-//W3C//DTD SVG 20010904//EN"
 "http://www.w3.org/TR/2001/REC-SVG-20010904/DTD/svg10.dtd">
<svg version="1.0" xmlns="http://www.w3.org/2000/svg"
 width="570.000000pt" height="702.000000pt" viewBox="0 0 570.000000 702.000000"
 preserveAspectRatio="xMidYMid meet">

<g transform="translate(0.000000,702.000000) scale(0.100000,-0.100000)"
fill="#000000" stroke="none">
<path d="M3840 6975 c-138 -92 -242 -218 -325 -390 -148 -309 -223 -608 -212
-853 l5 -123 -62 8 c-97 13 -283 7 -380 -12 -258 -48 -509 -172 -703 -347
-341 -307 -578 -785 -792 -1598 -30 -111 -147 -616 -171 -732 -13 -66 -4 -94
35 -104 20 -5 69 20 243 123 259 155 548 311 581 315 23 3 33 -18 193 -412
163 -401 291 -743 404 -1074 l54 -159 -25 -23 c-14 -13 -25 -34 -25 -49 0 -15
-5 -36 -11 -48 -26 -50 -142 -215 -291 -414 -87 -117 -163 -224 -168 -237 -7
-19 -5 -30 9 -47 17 -22 65 -30 80 -13 35 41 389 527 430 591 l52 82 62 -35
c166 -95 376 -177 532 -209 44 -9 126 -17 182 -19 76 -2 107 -7 120 -18 66
-58 170 -67 240 -21 45 29 78 78 88 134 5 25 15 41 36 53 53 31 176 133 250
208 141 142 293 349 414 566 32 56 62 102 67 102 5 0 31 -11 58 -25 129 -65
434 -195 458 -195 35 0 52 16 52 50 0 32 -21 52 -75 74 -22 9 -131 58 -242
108 -177 79 -205 94 -222 124 -15 24 -27 34 -45 34 -18 0 -27 7 -31 23 -3 12
-43 191 -89 397 -47 206 -100 445 -120 530 -40 178 -120 599 -115 604 2 2 78
27 169 56 197 63 247 86 316 151 66 63 94 126 96 217 1 84 -22 142 -87 211
-103 110 -283 137 -529 79 -49 -11 -104 -27 -122 -34 -19 -8 -35 -14 -37 -14
-3 0 -15 28 -27 63 -53 144 -183 379 -287 518 -27 36 -52 70 -56 76 -5 7 19
19 66 33 175 53 422 201 544 326 183 188 339 497 372 737 27 195 -54 447 -192
594 l-59 63 -322 0 -321 -1 -65 -44z m-1658 -1996 c490 -297 1064 -463 1455
-420 124 14 261 53 345 98 26 14 50 24 52 22 2 -2 18 -44 36 -92 44 -117 47
-119 186 -74 133 43 208 57 311 59 95 1 136 -7 183 -37 45 -29 66 -52 85 -98
30 -73 14 -147 -46 -204 -51 -48 -137 -86 -314 -138 -207 -62 -215 -66 -215
-112 0 -61 103 -583 194 -978 46 -204 101 -444 121 -535 21 -91 44 -173 52
-182 14 -16 10 -27 -42 -120 -169 -299 -402 -578 -589 -704 l-49 -33 -28 24
c-108 91 -283 29 -305 -108 l-7 -37 -87 0 c-160 0 -389 73 -608 193 -90 49
-92 51 -87 81 5 23 -16 95 -78 276 -139 401 -183 521 -302 815 -62 154 -153
379 -202 500 -77 192 -91 221 -114 229 -22 7 -46 0 -142 -47 -138 -66 -329
-169 -514 -278 -75 -43 -137 -79 -138 -79 -5 0 91 410 147 630 120 473 275
882 433 1140 46 77 174 259 182 260 1 0 39 -23 85 -51z m1666 -3615 c29 -19
30 -70 0 -101 -43 -46 -128 -20 -128 38 0 78 58 106 128 63z"/>
<path d="M4490 4421 c-70 -21 -150 -91 -150 -129 0 -24 20 -49 47 -56 16 -5
32 2 61 28 46 42 80 56 132 56 41 0 60 18 60 59 0 42 -78 64 -150 42z"/>
<path d="M3032 4103 c-29 -12 -32 -41 -12 -140 26 -126 61 -162 110 -113 25
25 25 25 0 140 -24 110 -45 135 -98 113z"/>
<path d="M2680 3960 c-11 -11 -20 -26 -20 -34 0 -13 21 -123 35 -184 8 -35 48
-49 80 -28 30 20 32 51 10 157 -22 104 -59 135 -105 89z"/>
<path d="M3532 3454 c-12 -8 -22 -21 -22 -27 0 -7 -11 -34 -23 -61 l-23 -50
-23 37 c-29 47 -67 67 -129 67 -35 0 -59 -7 -84 -24 -23 -15 -44 -22 -61 -19
-61 12 -149 -45 -190 -121 -18 -33 -22 -58 -22 -133 0 -105 -3 -108 -88 -97
-39 6 -46 3 -61 -17 -22 -31 -20 -52 5 -75 17 -15 37 -19 105 -19 l84 0 32
-50 c72 -109 194 -146 298 -89 104 56 150 144 158 299 5 94 7 102 37 140 41
50 81 130 90 177 6 29 3 40 -14 57 -25 25 -39 26 -69 5z m-178 -184 c9 -22 16
-45 16 -50 0 -17 -136 -106 -215 -140 -86 -37 -95 -35 -95 30 0 50 16 100 42
127 29 31 38 29 38 -10 0 -40 15 -57 51 -57 31 0 59 31 59 66 0 31 37 74 65
74 17 0 27 -9 39 -40z m21 -237 c-16 -92 -83 -173 -144 -173 -32 0 -86 32
-101 60 -6 12 -10 23 -8 24 2 1 33 15 70 30 37 15 91 43 120 61 29 18 57 33
61 34 4 1 5 -16 2 -36z"/>
</g>
</svg>
