<?xml version="1.0" standalone="no"?>
<!DOCTYPE svg PUBLIC "-//W3C//DTD SVG 20010904//EN"
 "http://www.w3.org/TR/2001/REC-SVG-20010904/DTD/svg10.dtd">
<svg version="1.0" xmlns="http://www.w3.org/2000/svg"
 width="552.000000pt" height="600.000000pt" viewBox="0 0 552.000000 600.000000"
 preserveAspectRatio="xMidYMid meet">

<g transform="translate(0.000000,600.000000) scale(0.100000,-0.100000)"
fill="#000000" stroke="none">
<path d="M2215 5351 c-159 -35 -280 -100 -405 -218 -99 -93 -168 -184 -219
-289 -37 -76 -81 -214 -81 -255 0 -16 -4 -15 -42 6 -126 71 -301 21 -446 -127
-148 -151 -205 -281 -205 -458 0 -128 27 -211 92 -283 39 -44 79 -61 153 -67
l67 -5 -56 -110 c-82 -162 -169 -312 -331 -575 -216 -349 -307 -478 -449 -633
-57 -62 -68 -101 -37 -131 27 -27 63 -19 97 21 18 20 58 66 90 102 32 36 87
108 124 159 l65 92 83 -44 c202 -109 570 -265 835 -352 350 -117 817 -206
1203 -230 120 -8 114 -2 101 -96 l-6 -46 -111 -22 c-61 -12 -149 -33 -195 -46
-65 -19 -87 -22 -98 -13 -8 7 -51 17 -97 24 -45 7 -131 20 -191 29 l-110 17
-130 97 c-349 258 -377 273 -416 209 -28 -45 -77 -173 -102 -268 -12 -43 -25
-79 -31 -79 -33 0 -900 345 -979 390 -27 15 -75 12 -92 -6 -17 -17 -21 -51 -7
-72 11 -18 676 -289 939 -383 l124 -44 -7 -40 c-17 -106 -45 -335 -45 -375 0
-97 27 -96 437 21 l212 61 123 -11 c68 -6 146 -17 173 -26 28 -8 63 -15 78
-15 21 0 73 -33 187 -117 267 -198 394 -287 417 -291 34 -6 57 27 107 154 75
193 96 327 110 687 7 174 -8 199 -108 170 -31 -9 -59 -13 -62 -10 -9 9 22 188
62 365 31 136 116 466 129 500 3 9 14 7 41 -7 52 -28 138 -44 190 -36 48 7 69
28 80 83 6 31 6 31 36 16 41 -21 128 -29 170 -15 19 6 50 27 69 47 33 34 34
38 34 112 -1 66 -6 89 -37 160 -20 45 -32 82 -28 82 10 0 373 -94 535 -139
107 -29 145 -36 160 -28 24 12 35 27 35 48 0 31 -219 431 -327 598 l-54 84 35
71 c64 128 71 282 20 435 -84 251 -262 355 -444 260 -36 -19 -68 -35 -72 -37
-4 -2 -34 38 -68 88 -180 268 -393 508 -575 647 -195 149 -507 217 -750 164z
m382 -122 c202 -44 348 -147 580 -408 134 -150 415 -543 400 -558 -8 -7 -369
57 -383 68 -6 5 -16 26 -22 48 -36 119 -133 226 -266 292 -80 39 -98 44 -170
47 -162 7 -295 -66 -413 -227 -2 -3 -111 15 -243 39 -233 42 -240 43 -260 25
-22 -20 -27 -67 -7 -83 6 -6 109 -28 227 -49 165 -30 215 -43 213 -54 -1 -8
-11 -39 -22 -69 -36 -101 -46 -200 -32 -297 22 -154 106 -317 197 -382 122
-89 323 -98 472 -22 178 91 332 351 332 562 0 44 2 51 18 47 10 -3 116 -23
235 -44 l218 -39 46 -75 c26 -41 115 -178 198 -305 140 -212 214 -335 324
-537 l42 -76 -48 14 c-196 60 -712 186 -873 213 -161 28 -612 79 -755 86 -66
3 -144 8 -174 11 l-55 6 -88 -91 c-208 -217 -255 -401 -126 -504 94 -75 259
-28 427 120 l59 52 4 -42 c17 -152 148 -239 263 -174 21 12 53 41 70 63 l32
41 30 -50 30 -50 -19 -61 c-30 -95 -107 -396 -143 -556 l-33 -145 -88 3 c-473
16 -1069 152 -1569 356 -158 65 -525 241 -525 252 0 3 30 54 67 113 233 372
399 666 498 884 65 142 66 148 51 172 -24 36 -56 31 -130 -19 -114 -78 -177
-69 -223 31 -74 161 -21 365 135 521 85 85 150 123 224 130 76 7 122 -22 191
-122 19 -28 64 -35 85 -14 7 7 12 39 12 73 1 237 133 499 329 649 196 151 397
192 658 135z m258 -658 c81 -40 153 -110 188 -181 141 -291 -70 -709 -368
-728 -178 -11 -292 81 -351 283 -60 207 43 493 218 607 71 46 111 58 186 54
46 -3 81 -13 127 -35z m1013 -175 c70 -37 140 -151 162 -263 17 -86 9 -218
-16 -266 l-20 -38 -78 121 c-92 145 -95 150 -68 150 20 0 52 34 52 55 0 29
-30 48 -91 59 -62 12 -65 14 -102 66 -20 30 -36 59 -34 64 6 19 101 66 135 66
18 0 45 -6 60 -14z m-2234 -2432 c28 -20 122 -89 210 -153 l158 -116 -5 -80
c-3 -44 -13 -105 -24 -135 -18 -50 -22 -55 -59 -64 -21 -5 -139 -37 -262 -72
-123 -35 -226 -64 -229 -64 -18 0 44 393 83 529 27 93 63 191 71 191 3 0 29
-16 57 -36z m1396 -251 c0 -107 -24 -375 -41 -457 -20 -100 -62 -233 -78 -249
-13 -13 -513 353 -507 370 3 7 13 50 21 96 9 45 18 91 20 103 4 16 21 26 77
44 54 17 457 113 501 119 4 1 7 -11 7 -26z m-805 -53 c125 -20 117 -16 110
-58 -13 -79 -38 -190 -45 -202 -6 -9 -28 -9 -101 0 -52 7 -99 14 -105 15 -8 3
-6 24 7 72 11 37 19 93 19 124 0 60 5 72 29 65 9 -2 48 -9 86 -16z"/>
<path d="M1122 4244 c-17 -12 -22 -24 -20 -47 3 -29 11 -36 83 -74 90 -47 115
-51 138 -25 40 44 6 87 -106 137 -68 30 -66 29 -95 9z"/>
<path d="M2711 4202 c-18 -33 -31 -133 -21 -153 22 -41 77 -42 98 -2 17 31 25
129 13 152 -15 27 -76 30 -90 3z"/>
</g>
</svg>
